<svg xmlns="http://www.w3.org/2000/svg" viewBox="0 0 500 500">
  <path d="M107.39037632 94.72093439c-.49024058 22.69138764 5.49190623 36.36088123 22.61437834 41.9070889 14.71722538 4.77672783 26.55286878-6.39390234 36.5518144-15.39076056 17.31486026-13.2954217 17.0692619-23.66152814 10.13254274-33.02024693-8.07704917-15.71185089-11.02089333-28.90855311-16.9070747-49.72072678-7.35007516-21.57370314-25.37374313-10.56523938-33.17016044 1.00946617-9.12460429 11.1349523-18.3289927 29.6924371-19.22150034 55.2151792zm192.92632614-49.28493313c-.1077091.03377601.04458433.0599654 0 0zM353.2541004 104.60897c-3.91228027 17.55191587 7.55714806 35.49430317 23.94420734 41.74529662 17.85699117 7.81762865 43.82422553 4.47258787 52.93417622-13.04913744 7.89405596-15.18312645-1.05550546-33.45161332-.84692561-50.14264629-.1900498-14.59606823-8.33354938-28.56218793-22.23324986-33.87734691-14.53928298-7.03467999-34.10788637-3.0472611-42.34586523 11.58030717-8.60901612 12.967254-7.39748628 29.27794832-11.45234287 43.74352685zM217.1108046 274.33341271c-6.46943589.19593203-18.90364212 2.47221676-16.53075801 9.61317165 4.01567641 12.08475446 23.26112135 14.44965704 25.62429875 27.9626378-.26826464 5.08670846-4.24808653 11.07413472-15.23168075 11.0096797 5.79458084 2.62176653 18.25962197 5.37365903 24.71494468 4.0596164 4.73222664 2.83078287 16.61768186-1.88003498 21.46725156-4.28695492 3.02391927-.4879438 9.87498248-7.76410666 2.20843132-5.0014474-7.26169633 1.39146762-28.2420953 3.05171952-25.59182183-5.52107832.92997303-14.75460763 20.75379834-18.25412428 25.94906807-29.97620754.9578876-5.86732917-7.38627264-7.11906805-11.9515107-6.3330016-10.17433145 2.15168763-20.3362645-2.01539884-30.6582231-1.52641577zm-23.12357506-83.79048262c-18.99544011 9.46165767-25.20012405 34.98143787-29.1117184 54.45064626-3.5885502 17.86128332 17.40146194 22.02695639 20.7070939 2.43322365 2.88345266-17.09131504 25.44638754-28.163683 18.58943171-48.33629496-1.34819276-4.5871457-5.91221488-10.67576487-10.1848072-8.54757495zm95.1898855 1.39650804c-26.60200508 4.90409976 2.35088294 37.33033582 6.05168381 55.50712863 2.99902896 14.72996673 42.53401319 25.62487035 31.35588994.57529376-9.29930419-20.83923604-15.45725253-60.12897527-37.40757375-56.08242239z"/>
  <path d="M422.20262544 202.13719454c-2.17252483 8.9769148 6.7695539 39.47063314-13.95165318 71.34935491-20.23192262 24.70960288-30.42125062 43.31131866-64.12578909 51.42272583-26.12171024 7.83061941-52.41803724 15.51809091-76.8439944 27.82863539-22.38119916 8.96685473-49.4500926 9.4587997-69.52160517-5.35988881-21.36361637-11.7827138-43.29442026-22.65401578-66.30470538-30.8218029-25.77678964-12.33949832-31.08796825-44.14207337-27.97241726-69.8125777 3.57014488-12.5789858-9.81941316-49.10950574-21.25585532-29.36675325-26.80283203 46.26976444-24.18850661 99.7612448-29.59167028 151.62118807 182.14048265 4.28210157 255.46108855-1.8397532 378.85341112-1.31206802 6.67267392-48.2466898 3.29764005-71.6578286 5.28098805-126.35443695 4.04871455-52.53300038-12.33290939-48.4244867-14.5667091-39.19437657z"/>
  <path d="m410.29297 923.3485-18.48633 2.97851v54.83985c0 4.21848.37275 8.06501 1.11719 11.53906.82715 3.47404 2.23358 6.45211 4.21875 8.93358 1.98516 2.3987 4.63084 4.3009 7.93945 5.707 3.30861 1.3235 7.48562 1.9844 12.53125 1.9844 3.14308 0 5.78487-.2669 8.15039-.6816l1.17578-15.50979c-.09295.0185-.17383.04448-.26757.0625-2.06788.33086-4.09492.4961-6.08008.4961-4.13577 0-6.90634-1.15859-8.3125-3.47461-1.32344-2.31604-1.98633-5.41707-1.98633-9.30469v-22.95312h19.31445l1.16602-15.38672h-20.48047V923.3485zM121.3457 939.28404c-3.97033.00001-7.85915.74551-11.66406 2.23438-3.72219 1.48888-7.03074 3.68114-9.925781 6.57617-2.895036 2.89504-5.252528 6.53406-7.072265 10.91797-1.737022 4.30119-2.605469 9.34665-2.605469 15.13672 0 4.79749.662883 9.26462 1.986328 13.40039 1.406161 4.13577 3.515804 7.7325 6.328125 10.79297 2.895032 2.97776 6.491772 5.33526 10.792972 7.07226 4.38391 1.737 9.51198 2.6055 15.38476 2.6055 2.31604 0 4.63319-.123 6.94922-.3711 2.31603-.2482 4.466-.5786 6.45117-.9922 2.06788-.3309 3.92968-.7459 5.58399-1.2422 1.6543-.4963 2.97811-.9919 3.9707-1.4883l-2.48242-15.01365c-2.06789.90987-4.75584 1.6957-8.06445 2.35742-3.2259.57901-6.53446.86914-9.92579.86914-5.29378 0-9.51307-1.11629-12.65625-3.34961-3.14318-2.23332-4.92041-5.25174-5.33398-9.05664h41.93555c.08271-.99258.16532-2.11083.24804-3.35156.08272-1.32345.125-2.52236.125-3.59766 0-11.00114-2.68795-19.31286-8.06445-24.9375-5.37649-5.70736-12.69682-8.5625-21.96094-8.5625zm58.11133 0c-7.94067 0-14.18503 1.77918-18.73437 5.33594-4.54935 3.55676-6.82422 8.39469-6.82422 14.51563 0 3.14318.45341 5.83309 1.36328 8.0664.90987 2.23332 2.19335 4.17578 3.84766 5.83008 1.6543 1.57159 3.63905 2.93769 5.95507 4.0957 2.39875 1.15802 5.04638 2.27431 7.94141 3.34961 3.72219 1.40616 6.49277 2.68769 8.3125 3.84571 1.81974 1.0753 2.72852 2.35683 2.72852 3.8457 0 1.90245-.70322 3.18594-2.10938 3.84766-1.40616.66172-3.80399.99218-7.19531.99218-3.2259 0-6.49412-.33046-9.80274-.99218-3.30861-.74444-6.53455-1.73779-9.67773-2.97852l-3.10156 15.01365c1.48887.6618 4.1365 1.4879 7.9414 2.4805 3.88762.9925 8.72555 1.4883 14.51563 1.4883 8.85054 0 15.67516-1.6543 20.47265-4.9629 4.8802-3.30862 7.32032-8.18885 7.32032-14.64064 0-2.72961-.33047-5.12743-.99219-7.19532-.57901-2.06787-1.65497-3.92967-3.22656-5.58398-1.48888-1.73702-3.55624-3.30868-6.20313-4.71484-2.64689-1.48888-5.99773-2.97793-10.05078-4.4668-1.98517-.74444-3.63944-1.40537-4.96289-1.98438-1.24073-.66172-2.23213-1.24004-2.97656-1.73632-.74444-.57901-1.24209-1.15927-1.49024-1.73828-.24814-.57901-.37109-1.23995-.37109-1.98438 0-3.2259 2.89547-4.83984 8.68555-4.83984 3.14318 0 5.95408.29013 8.43554.86914 2.56418.579 4.92167 1.23993 7.07227 1.98437l3.22656-14.39062c-2.1506-.82716-5.04607-1.57266-8.68555-2.23438-3.63948-.74444-7.44373-1.11718-11.41406-1.11719zm123.00586 0c-3.97033 0-7.85916.74551-11.66406 2.23438-3.7222 1.48888-7.03075 3.68114-9.92578 6.57617-2.89504 2.89504-5.25254 6.53406-7.07227 10.91797-1.73703 4.30119-2.60547 9.34665-2.60547 15.13672 0 4.79749.66288 9.26462 1.98633 13.40039 1.40616 4.13577 3.51385 7.7325 6.32617 10.79297 2.89504 2.97776 6.49372 5.33526 10.79492 7.07226 4.38391 1.737 9.51198 2.6055 15.38477 2.6055 2.31603 0 4.63319-.123 6.94922-.3711 2.31603-.2482 4.466-.5786 6.45117-.9922 2.06789-.3309 3.92968-.7459 5.58399-1.2422 1.6543-.4963 2.97616-.9919 3.96874-1.4883l-2.48046-15.01365c-2.06788.90987-4.75584 1.6957-8.06446 2.35742-3.2259.57901-6.53445.86914-9.92578.86914-5.29378 0-9.51307-1.11629-12.65625-3.34961-3.14318-2.23332-4.9204-5.25174-5.33398-9.05664h41.93554c.08272-.99258.16534-2.11083.24805-3.35156.08271-1.32345.125-2.52235.125-3.59766 0-11.00113-2.68796-19.31285-8.06445-24.9375-5.3765-5.70735-12.69683-8.56249-21.96094-8.5625zm66.5957 0c-5.29378.00001-10.00681.91073-14.14257 2.73047-4.13577 1.81974-7.65184 4.30018-10.54688 7.44336-2.89503 3.06047-5.12958 6.70144-6.70117 10.91992-1.48887 4.13577-2.23242 8.56062-2.23242 13.2754 0 4.8802.6206 9.42995 1.86133 13.64843 1.32344 4.13577 3.35047 7.73251 6.08007 10.79297 2.81232 3.06051 6.36873 5.50061 10.66993 7.32031 4.30119 1.737 9.42925 2.6055 15.38476 2.6055 3.88762 0 7.44402-.3305 10.66992-.9922 3.2259-.6617 5.91386-1.4476 8.06446-2.3574l-2.60547-15.13676c-2.1506.90988-4.5081 1.57276-7.07227 1.98633-2.56417.41358-4.962.61914-7.19531.61914-6.28637 0-10.71121-1.61199-13.27539-4.83789-2.48146-3.2259-3.72266-7.77565-3.72266-13.64843 0-5.54193 1.32381-10.00907 3.9707-13.4004 2.72961-3.39133 6.82399-5.08593 12.28321-5.08593 2.56417 0 4.87938.24784 6.94726.74414 2.06788.49629 3.97002 1.07461 5.70703 1.73633l3.84766-14.76368c-2.72961-1.15802-5.54246-2.02646-8.4375-2.60546-2.89503-.66172-6.08064-.99414-9.55469-.99415zm-136.29687.24805c-2.23331 0-4.59081.12491-7.07227.37305-2.39874.16543-4.79657.41328-7.19531.74414-2.31603.33086-4.55057.74394-6.70117 1.24023-2.15059.41358-4.05273.86894-5.70703 1.36524v85.98245h18.48828v-24.5664c2.06789.9098 4.21786 1.6131 6.45117 2.1093 2.23331.4963 4.63114.7442 7.19531.7442 4.63206 0 8.72645-.8262 12.28321-2.4805 3.55676-1.6543 6.53484-3.9715 8.93359-6.94921 2.39874-2.97775 4.21825-6.53415 5.45898-10.66992 1.24073-4.13577 1.86133-8.72585 1.86133-13.77148 0-5.21107-.78583-9.92606-2.35742-14.14454-1.48888-4.21848-3.68114-7.77488-6.57617-10.66992-2.89504-2.97775-6.45144-5.25263-10.66992-6.82422-4.21848-1.6543-9.01608-2.48242-14.39258-2.48242zm-155.150392.125c-5.541927 0-10.589328.53798-15.138672 1.61328-4.466628.99258-8.353496 2.06659-11.662109 3.22461v61.78902h18.486328v-49.87691c.827153-.24814 2.028018-.45567 3.599609-.62109 1.654307-.24815 3.058783-.3711 4.216797-.3711 2.564176 0 4.963952.24785 7.197266.74414 2.233314.41358 4.177724.82666 5.832031 1.24024l3.101563-15.26172c-.992584-.41358-2.191496-.74404-3.597657-.99219-1.40616-.33086-2.812589-.57871-4.21875-.74414-1.40616-.24814-2.812589-.41337-4.21875-.49609-1.40616-.16543-2.605072-.24805-3.597656-.24805zm43.982422 14.88867c2.1506 0 3.92782.37275 5.33398 1.11719 1.48888.74443 2.68974 1.6955 3.59961 2.85352.99258 1.15802 1.6958 2.48183 2.10938 3.9707.49629 1.48887.78447 3.01825.86719 4.58984H109.0625c.24815-1.57159.61895-3.10097 1.11523-4.58984.57901-1.57159 1.36484-2.93769 2.35743-4.0957.99258-1.15802 2.23378-2.0668 3.72265-2.72852 1.48888-.74444 3.26805-1.11719 5.33594-1.11719zm181.11719 0c2.1506 0 3.92782.37275 5.33398 1.11719 1.48888.74443 2.68779 1.6955 3.59766 2.85352.99258 1.15802 1.6958 2.48183 2.10937 3.9707.4963 1.48887.78643 3.01825.86914 4.58984h-24.4414c.24814-1.57159.61894-3.10097 1.11523-4.58984.57901-1.57159 1.36484-2.93769 2.35742-4.0957.99258-1.15802 2.23378-2.0668 3.72266-2.72852 1.48887-.74444 3.26806-1.11719 5.33594-1.11719zm-70.07227.74414c5.04564 0 8.84989 1.7369 11.41406 5.21094 2.56418 3.39134 3.84571 7.94109 3.84571 13.64844 0 11.82829-4.38257 17.74219-13.15039 17.74219-1.90246 0-3.80653-.24785-5.70899-.74414-1.81973-.4963-3.30682-1.1169-4.46484-1.86133v-33.375c.90987-.16543 2.0665-.29033 3.47266-.37305 1.40616-.16543 2.93749-.24805 4.59179-.24805z" font-family="Ubuntu" font-size="124.073" font-weight="700" letter-spacing="0" style="line-height:125%;-inkscape-font-specification:&quot;Ubuntu Bold&quot;" transform="translate(0 -552.36217)" word-spacing="0"/>
</svg>
